<?xml version="1.0" encoding="iso-8859-1"?>
<!-- Generator: Adobe Illustrator 19.0.0, SVG Export Plug-In . SVG Version: 6.00 Build 0)  -->
<svg version="1.1" id="Layer_1" xmlns="http://www.w3.org/2000/svg" xmlns:xlink="http://www.w3.org/1999/xlink" x="0px" y="0px"
	 viewBox="0 0 299.988 299.988" style="enable-background:new 0 0 299.988 299.988;" xml:space="preserve">
<g>
	<g>
		<g>
			<path d="M186.006,84h12c6.612,0,11.988,5.376,11.988,11.988c0,3.318,2.682,6,6,6s6-2.682,6-6
				C221.994,82.764,211.23,72,198.006,72h-12c-3.318,0-6,2.682-6,6S182.688,84,186.006,84z"/>
			<path d="M232.983,144.227c1.361-2.333,2.626-4.728,3.791-7.18c0.93,0.593,2.033,0.94,3.22,0.94h24c3.318,0,6-2.682,6-6v-6v-54
				v-30c0-3.318-2.682-6-6-6c-3.318,0-6,2.682-6,6v24h-16.799C228.564,27.709,192.458,0,149.994,0
				c-41.865,0-75.32,27.484-86.216,67.331c-1.032-0.839-2.348-1.343-3.784-1.343h-24c-3.318,0-6,2.682-6,6v60c0,3.318,2.682,6,6,6
				h24c3.318,0,6-2.682,6-6v-0.238c1.509,4.257,3.288,8.347,5.314,12.255c-29.462,0.37-53.314,24.435-53.314,53.983v96
				c0,3.318,2.682,6,6,6s6-2.682,6-6v-96c0-21.117,15.678-38.642,36-41.564v32.948c0,1.248,0.396,2.466,1.122,3.48
				c14.982,20.988,46.74,34.02,82.878,34.02s67.896-13.026,82.872-34.02c0.744-1.02,1.128-2.238,1.128-3.48v-32.948
				c20.323,2.922,36,20.448,36,41.564v96c0,3.318,2.682,6,6,6s6-2.682,6-6v-96C281.994,169.893,260.43,146.754,232.983,144.227z
				 M53.994,125.988h-12v-48h12V125.988z M72.073,99.166C72.927,83.263,81.103,66,101.994,66h96
				c19.052,0,34.673,14.841,35.922,33.569C232.043,144.293,195.201,180,150.006,180C104.676,180,73.479,144.077,72.073,99.166z
				 M245.994,77.988h12v48h-12v-24h0.012c0-0.159-0.01-0.315-0.012-0.473v-4.568c0.003-0.316,0.012-0.63,0.012-0.946
				s-0.009-0.631-0.012-0.946V77.988z M149.994,12c35.241,0,65.39,21.7,77.865,52.456C219.654,57.92,209.276,54,197.994,54h-96
				c-8.996,0-16.927,2.484-23.412,6.977C90.132,32.078,116.106,12,149.994,12z M149.994,214.872c-31.416,0-58.764-10.488-72-27.492
				v-32.394C94.145,177.786,119.902,192,150.006,192c28.638,0,54.383-12.611,71.988-32.565v27.945
				C208.758,204.384,181.41,214.872,149.994,214.872z"/>
			<path d="M71.994,227.982c-16.542,0-30,13.458-30,30.006c0,16.542,13.458,30,30,30s30-13.458,30-30
				C101.994,241.44,88.536,227.982,71.994,227.982z M71.994,275.988c-9.924,0-18-8.076-18-18c0-9.924,8.076-18.006,18-18.006
				s18,8.082,18,18.006C89.994,267.912,81.918,275.988,71.994,275.988z"/>
			<path d="M239.994,245.988h-48c-3.318,0-6,2.682-6,6c0,3.318,2.682,6,6,6h48c3.318,0,6-2.682,6-6
				C245.994,248.67,243.312,245.988,239.994,245.988z"/>
		</g>
	</g>
</g>
<g>
</g>
<g>
</g>
<g>
</g>
<g>
</g>
<g>
</g>
<g>
</g>
<g>
</g>
<g>
</g>
<g>
</g>
<g>
</g>
<g>
</g>
<g>
</g>
<g>
</g>
<g>
</g>
<g>
</g>
</svg>
